<svg version="1.1" xmlns="http://www.w3.org/2000/svg" viewBox="0 0 1222.8571428571418 708.1024531024534" width="1222.8571428571418" height="708.1024531024534">
  <!-- svg-source:excalidraw -->
  
  <defs>
    <style class="style-fonts">
      @font-face {
        font-family: "Virgil";
        src: url("https://excalidraw.com/Virgil.woff2");
      }
      @font-face {
        font-family: "Cascadia";
        src: url("https://excalidraw.com/Cascadia.woff2");
      }
    </style>
  </defs>
  <rect x="0" y="0" width="1222.8571428571418" height="708.1024531024534" fill="#ffffff"></rect><g stroke-linecap="round" transform="translate(10 155.11885472159975) rotate(0 601.4285714285709 231.4285714285715)"><path d="M0 0 C374.24 0, 748.47 0, 1202.86 0 M0 0 C386.84 0, 773.68 0, 1202.86 0 M1202.86 0 C1202.86 123.45, 1202.86 246.91, 1202.86 462.86 M1202.86 0 C1202.86 129.65, 1202.86 259.3, 1202.86 462.86 M1202.86 462.86 C911.18 462.86, 619.51 462.86, 0 462.86 M1202.86 462.86 C726.94 462.86, 251.03 462.86, 0 462.86 M0 462.86 C0 333.5, 0 204.15, 0 0 M0 462.86 C0 309.75, 0 156.64, 0 0" stroke="#000000" stroke-width="2" fill="none"></path></g><g transform="translate(1084.3779182336168 170.4954780982231) rotate(0 54.5 11.5)"><text x="54.5" y="18" font-family="Helvetica, Segoe UI Emoji" font-size="20px" fill="#000000" text-anchor="middle" style="white-space: pre;" direction="ltr">default VPC</text></g><g stroke-linecap="round" transform="translate(557.9808551863441 277.34920634920695) rotate(0 84.35064935064906 47.59740259740249)"><path d="M0 0 L168.7 0 L168.7 95.19 L0 95.19" stroke="none" stroke-width="0" fill="#82c91e"></path><path d="M0 0 C65.41 0, 130.82 0, 168.7 0 M0 0 C67.28 0, 134.56 0, 168.7 0 M168.7 0 C168.7 30.85, 168.7 61.7, 168.7 95.19 M168.7 0 C168.7 25.03, 168.7 50.07, 168.7 95.19 M168.7 95.19 C113.36 95.19, 58.01 95.19, 0 95.19 M168.7 95.19 C112.39 95.19, 56.08 95.19, 0 95.19 M0 95.19 C0 67.52, 0 39.84, 0 0 M0 95.19 C0 72.94, 0 50.68, 0 0" stroke="#000000" stroke-width="2" fill="none"></path></g><g transform="translate(585.2016344071226 303.9401154401155) rotate(0 61 23)"><text x="61" y="18" font-family="Helvetica, Segoe UI Emoji" font-size="20px" fill="#000000" text-anchor="middle" style="white-space: pre;" direction="ltr">Observability </text><text x="61" y="41" font-family="Helvetica, Segoe UI Emoji" font-size="20px" fill="#000000" text-anchor="middle" style="white-space: pre;" direction="ltr">cluster</text></g><g stroke-linecap="round" transform="translate(915.3444915499799 378.1580641580641) rotate(359.99999999999886 101.42857142857133 69.56959706959712)"><path d="M0 0 L202.86 0 L202.86 139.14 L0 139.14" stroke="none" stroke-width="0" fill="#4c6ef5"></path><path d="M0 0 C72.98 0, 145.96 0, 202.86 0 M0 0 C41.74 0, 83.48 0, 202.86 0 M202.86 0 C202.86 28.07, 202.86 56.15, 202.86 139.14 M202.86 0 C202.86 28, 202.86 56, 202.86 139.14 M202.86 139.14 C143.05 139.14, 83.24 139.14, 0 139.14 M202.86 139.14 C130.05 139.14, 57.25 139.14, 0 139.14 M0 139.14 C0 109.55, 0 79.95, 0 0 M0 139.14 C0 107.94, 0 76.74, 0 0" stroke="#000000" stroke-width="2" fill="none"></path></g><g transform="translate(984.0309879607537 427.2595541216927) rotate(359.99999999999886 35.5 23)"><text x="35.5" y="18" font-family="Helvetica, Segoe UI Emoji" font-size="20px" fill="#000000" text-anchor="middle" style="white-space: pre;" direction="ltr">Metrics </text><text x="35.5" y="41" font-family="Helvetica, Segoe UI Emoji" font-size="20px" fill="#000000" text-anchor="middle" style="white-space: pre;" direction="ltr">cluster</text></g><g stroke-linecap="round" transform="translate(556.4483876538761 464.5569985569986) rotate(0 80.90909090909065 51.29870129870119)"><path d="M0 0 L161.82 0 L161.82 102.6 L0 102.6" stroke="none" stroke-width="0" fill="#fd7e14"></path><path d="M0 0 C40.87 0, 81.75 0, 161.82 0 M0 0 C60.09 0, 120.18 0, 161.82 0 M161.82 0 C161.82 21.63, 161.82 43.26, 161.82 102.6 M161.82 0 C161.82 29.85, 161.82 59.71, 161.82 102.6 M161.82 102.6 C123.91 102.6, 85.99 102.6, 0 102.6 M161.82 102.6 C125 102.6, 88.18 102.6, 0 102.6 M0 102.6 C0 64.29, 0 25.98, 0 0 M0 102.6 C0 72.42, 0 42.24, 0 0" stroke="#000000" stroke-width="2" fill="none"></path></g><g transform="translate(578.1821538876425 493.13492063492043) rotate(0 54.5 23)"><text x="54.5" y="18" font-family="Helvetica, Segoe UI Emoji" font-size="20px" fill="#000000" text-anchor="middle" style="white-space: pre;" direction="ltr">Kubernetes </text><text x="54.5" y="41" font-family="Helvetica, Segoe UI Emoji" font-size="20px" fill="#000000" text-anchor="middle" style="white-space: pre;" direction="ltr">Cluster</text></g><g stroke-linecap="round" transform="translate(69.68648289197063 10) rotate(0 79.80519480519456 28.311688311688215)"><path d="M0 0 L159.61 0 L159.61 56.62 L0 56.62" stroke="none" stroke-width="0" fill="#82c91e"></path><path d="M0 0 C60.72 0, 121.45 0, 159.61 0 M0 0 C52.72 0, 105.44 0, 159.61 0 M159.61 0 C159.61 12.69, 159.61 25.37, 159.61 56.62 M159.61 0 C159.61 20.62, 159.61 41.25, 159.61 56.62 M159.61 56.62 C124.13 56.62, 88.65 56.62, 0 56.62 M159.61 56.62 C104.67 56.62, 49.72 56.62, 0 56.62 M0 56.62 C0 44.81, 0 32.99, 0 0 M0 56.62 C0 37.66, 0 18.7, 0 0" stroke="#000000" stroke-width="2" fill="none"></path></g><g transform="translate(102.06310626859477 28.21428571428612) rotate(0 41 11.5)"><text x="41" y="18" font-family="Helvetica, Segoe UI Emoji" font-size="20px" fill="#000000" text-anchor="middle" style="white-space: pre;" direction="ltr">Engineer</text></g><g stroke-linecap="round" transform="translate(97.91592012140654 342.01154401154366) rotate(0 64.42857142857133 57.92857142857139)"><path d="M0 0 L128.86 0 L128.86 115.86 L0 115.86" stroke="none" stroke-width="0" fill="#fab005"></path><path d="M0 0 C38.11 0, 76.22 0, 128.86 0 M0 0 C48.87 0, 97.75 0, 128.86 0 M128.86 0 C128.86 30.3, 128.86 60.6, 128.86 115.86 M128.86 0 C128.86 32.7, 128.86 65.4, 128.86 115.86 M128.86 115.86 C89.11 115.86, 49.37 115.86, 0 115.86 M128.86 115.86 C98.43 115.86, 68 115.86, 0 115.86 M0 115.86 C0 75.06, 0 34.26, 0 0 M0 115.86 C0 79.92, 0 43.99, 0 0" stroke="#000000" stroke-width="2" fill="none"></path></g><g transform="translate(126.41592012140609 376.082972582972) rotate(0 34.5 23)"><text x="34.5" y="18" font-family="Helvetica, Segoe UI Emoji" font-size="20px" fill="#000000" text-anchor="middle" style="white-space: pre;" direction="ltr">VPN </text><text x="34.5" y="41" font-family="Helvetica, Segoe UI Emoji" font-size="20px" fill="#000000" text-anchor="middle" style="white-space: pre;" direction="ltr">Bastion</text></g><g mask="url(#mask-iqbBz3G_HnwUmvs70MQXo)" stroke-linecap="round"><g transform="translate(228.95844854269853 382.2741385420313) rotate(0 164.01120332182268 -25.73437715936015)"><path d="M0 0 C109.87 -17.24, 219.74 -34.48, 328.02 -51.47 M0 0 C99.42 -15.6, 198.84 -31.2, 328.02 -51.47" stroke="#000000" stroke-width="2" fill="none"></path></g><g transform="translate(228.95844854269853 382.2741385420313) rotate(0 164.01120332182268 -25.73437715936015)"><path d="M328.02 -51.47 L315.57 -43.1 L313.61 -55.62 L328.02 -51.47" stroke="none" stroke-width="0" fill="#000000" fill-rule="evenodd"></path><path d="M328.02 -51.47 C323.85 -48.67, 319.68 -45.86, 315.57 -43.1 M328.02 -51.47 C324.25 -48.93, 320.48 -46.4, 315.57 -43.1 M315.57 -43.1 C315.11 -46.03, 314.65 -48.96, 313.61 -55.62 M315.57 -43.1 C314.85 -47.72, 314.12 -52.35, 313.61 -55.62 M313.61 -55.62 C318.55 -54.2, 323.49 -52.78, 328.02 -51.47 M313.61 -55.62 C317.75 -54.43, 321.89 -53.24, 328.02 -51.47 M328.02 -51.47 C328.02 -51.47, 328.02 -51.47, 328.02 -51.47 M328.02 -51.47 C328.02 -51.47, 328.02 -51.47, 328.02 -51.47" stroke="#000000" stroke-width="2" fill="none"></path></g></g><mask id="mask-iqbBz3G_HnwUmvs70MQXo"><rect x="0" y="0" fill="#fff" width="656.9808551863439" height="533.7428928607517"></rect><rect x="336.46965186452144" y="345.03976138267114" fill="#000" width="113" height="23" opacity="1"></rect></mask><g transform="translate(336.46965186452144 345.03976138267114) rotate(0 56.49999999999977 11.500000000000028)"><text x="56.5" y="18" font-family="Helvetica, Segoe UI Emoji" font-size="20px" fill="#000000" text-anchor="middle" style="white-space: pre;" direction="ltr">https access</text></g><g mask="url(#mask-IWkY5TcST4Rg4aJp6CIYY)" stroke-linecap="round"><g transform="translate(142.39413579065877 68.21798332156266) rotate(0 -1.5372629625901482 135.93628746462272)"><path d="M0 0 C-0.89 78.61, -1.78 157.21, -3.07 271.87 M0 0 C-0.96 85.17, -1.93 170.34, -3.07 271.87" stroke="#000000" stroke-width="2" fill="none"></path></g><g transform="translate(142.39413579065877 68.21798332156266) rotate(0 -1.5372629625901482 135.93628746462272)"><path d="M-3.07 271.87 L-9.26 258.21 L3.42 258.35 L-3.07 271.87" stroke="none" stroke-width="0" fill="#000000" fill-rule="evenodd"></path><path d="M-3.07 271.87 C-4.86 267.92, -6.65 263.97, -9.26 258.21 M-3.07 271.87 C-5.01 267.59, -6.95 263.31, -9.26 258.21 M-9.26 258.21 C-4.52 258.26, 0.22 258.31, 3.42 258.35 M-9.26 258.21 C-4.99 258.26, -0.72 258.3, 3.42 258.35 M3.42 258.35 C1.63 262.08, -0.17 265.81, -3.07 271.87 M3.42 258.35 C1.09 263.21, -1.25 268.06, -3.07 271.87 M-3.07 271.87 C-3.07 271.87, -3.07 271.87, -3.07 271.87 M-3.07 271.87 C-3.07 271.87, -3.07 271.87, -3.07 271.87" stroke="#000000" stroke-width="2" fill="none"></path></g></g><mask id="mask-IWkY5TcST4Rg4aJp6CIYY"><rect x="0" y="0" fill="#fff" width="245.46866171583906" height="440.0905582508081"></rect><rect x="108.85687282806884" y="192.6542707861854" fill="#000" width="64" height="23" opacity="1"></rect></mask><g transform="translate(108.85687282806884 192.6542707861854) rotate(0 31.999999999999773 11.499999999999972)"><text x="32" y="18" font-family="Helvetica, Segoe UI Emoji" font-size="20px" fill="#000000" text-anchor="middle" style="white-space: pre;" direction="ltr">access</text></g><g stroke-linecap="round" transform="translate(503.82501103049844 220.47907647907766) rotate(0 321.4285714285712 182.07792207792198)"><path d="M0 0 C190.88 0, 381.76 0, 642.86 0 M0 0 C180.03 0, 360.06 0, 642.86 0 M642.86 0 C642.86 132.38, 642.86 264.76, 642.86 364.16 M642.86 0 C642.86 94.19, 642.86 188.38, 642.86 364.16 M642.86 364.16 C449.85 364.16, 256.84 364.16, 0 364.16 M642.86 364.16 C486.24 364.16, 329.62 364.16, 0 364.16 M0 364.16 C0 237.81, 0 111.47, 0 0 M0 364.16 C0 235.83, 0 107.51, 0 0" stroke="#000000" stroke-width="2" fill="none"></path></g><g transform="translate(961.0587772642641 245.7258297258304) rotate(0 69 11.5)"><text x="69" y="18" font-family="Helvetica, Segoe UI Emoji" font-size="20px" fill="#000000" text-anchor="middle" style="white-space: pre;" direction="ltr">private network</text></g><g stroke-linecap="round" transform="translate(54.34449154997856 220.86868686868718) rotate(0 213.14285714285734 162.85714285714278)"><path d="M0 0 C93.74 0, 187.48 0, 426.29 0 M0 0 C111.55 0, 223.1 0, 426.29 0 M426.29 0 C426.29 114.8, 426.29 229.6, 426.29 325.71 M426.29 0 C426.29 117.17, 426.29 234.34, 426.29 325.71 M426.29 325.71 C316.05 325.71, 205.81 325.71, 0 325.71 M426.29 325.71 C334.87 325.71, 243.45 325.71, 0 325.71 M0 325.71 C0 202.45, 0 79.19, 0 0 M0 325.71 C0 227.2, 0 128.68, 0 0" stroke="#000000" stroke-width="2" fill="none"></path></g><g transform="translate(332.1684453739322 234.81240981241046) rotate(0 65 11.5)"><text x="65" y="18" font-family="Helvetica, Segoe UI Emoji" font-size="20px" fill="#000000" text-anchor="middle" style="white-space: pre;" direction="ltr">public network</text></g><g stroke-linecap="round"><g transform="translate(912.637548959859 443.7663838676603) rotate(0 -341.7953271028048 -15.041894979887275)"><path d="M0 0 C-240.43 -10.58, -480.86 -21.16, -683.59 -30.08" stroke="#000000" stroke-width="2.5" fill="none" stroke-dasharray="1.5 8"></path></g><g transform="translate(912.637548959859 443.7663838676603) rotate(0 -341.7953271028048 -15.041894979887275)"><path d="M-683.59 -30.08 L-669.73 -35.82 L-670.29 -23.15 L-683.59 -30.08" stroke="none" stroke-width="0" fill="#000000" fill-rule="evenodd"></path><path d="M-683.59 -30.08 C-678.72 -32.1, -673.84 -34.12, -669.73 -35.82 M-669.73 -35.82 C-669.87 -32.68, -670.01 -29.53, -670.29 -23.15 M-670.29 -23.15 C-673.11 -24.62, -675.93 -26.1, -683.59 -30.08 M-683.59 -30.08 C-683.59 -30.08, -683.59 -30.08, -683.59 -30.08" stroke="#000000" stroke-width="2.5" fill="none"></path></g></g><mask></mask><g stroke-linecap="round"><g transform="translate(980.5392967447835 658.6608946608949) rotate(0 112.21428571428555 -0.07142857142855519)"><path d="M0 0 C63.57 -0.04, 127.14 -0.08, 224.43 -0.14" stroke="#000000" stroke-width="2.5" fill="none" stroke-dasharray="1.5 8"></path></g><g transform="translate(980.5392967447835 658.6608946608949) rotate(0 112.21428571428555 -0.07142857142855519)"><path d="M224.43 -0.14 L210.84 6.21 L210.83 -6.47 L224.43 -0.14" stroke="none" stroke-width="0" fill="#000000" fill-rule="evenodd"></path><path d="M224.43 -0.14 C220.58 1.66, 216.73 3.45, 210.84 6.21 M210.84 6.21 C210.84 3.64, 210.83 1.08, 210.83 -6.47 M210.83 -6.47 C215.32 -4.38, 219.81 -2.29, 224.43 -0.14 M224.43 -0.14 C224.43 -0.14, 224.43 -0.14, 224.43 -0.14" stroke="#000000" stroke-width="2.5" fill="none"></path></g></g><mask></mask><g stroke-linecap="round"><g transform="translate(914.3444915499806 478.4143270752833) rotate(0 -97.50459956709994 9.438951577296564)"><path d="M0 0 C-39.55 3.83, -79.1 7.66, -195.01 18.88" stroke="#000000" stroke-width="2.5" fill="none" stroke-dasharray="1.5 8"></path></g><g transform="translate(914.3444915499806 478.4143270752833) rotate(0 -97.50459956709994 9.438951577296564)"><path d="M-195.01 18.88 L-182.09 11.26 L-180.87 23.88 L-195.01 18.88" stroke="none" stroke-width="0" fill="#000000" fill-rule="evenodd"></path><path d="M-195.01 18.88 C-192.39 17.33, -189.77 15.79, -182.09 11.26 M-182.09 11.26 C-181.61 16.15, -181.14 21.05, -180.87 23.88 M-180.87 23.88 C-185.73 22.16, -190.59 20.44, -195.01 18.88 M-195.01 18.88 C-195.01 18.88, -195.01 18.88, -195.01 18.88" stroke="#000000" stroke-width="2.5" fill="none"></path></g></g><mask></mask><g transform="translate(984.734101939589 675.1024531024534) rotate(0 63 11.5)"><text x="63" y="18" font-family="Helvetica, Segoe UI Emoji" font-size="20px" fill="#000000" text-anchor="middle" style="white-space: pre;" direction="ltr">scrap metrics </text></g><g stroke-linecap="round"><g transform="translate(916.4966727021615 403.5528372668631) rotate(0 -94.2950297606975 -35.95667409321186)"><path d="M0 0 C-68.08 -25.96, -136.15 -51.92, -188.59 -71.91" stroke="#000000" stroke-width="2.5" fill="none" stroke-dasharray="1.5 8"></path></g><g transform="translate(916.4966727021615 403.5528372668631) rotate(0 -94.2950297606975 -35.95667409321186)"><path d="M-188.59 -71.91 L-173.63 -72.99 L-178.15 -61.15 L-188.59 -71.91" stroke="none" stroke-width="0" fill="#000000" fill-rule="evenodd"></path><path d="M-188.59 -71.91 C-183.19 -72.3, -177.79 -72.69, -173.63 -72.99 M-173.63 -72.99 C-174.66 -70.28, -175.7 -67.57, -178.15 -61.15 M-178.15 -61.15 C-180.43 -63.5, -182.72 -65.86, -188.59 -71.91 M-188.59 -71.91 C-188.59 -71.91, -188.59 -71.91, -188.59 -71.91" stroke="#000000" stroke-width="2.5" fill="none"></path></g></g><mask></mask><g stroke-linecap="round"><g transform="translate(731.3138006393945 303.48405153480803) rotate(0 92.61646806312297 37.67763931751705)"><path d="M0 0 C40.65 16.54, 81.3 33.07, 185.23 75.36 M0 0 C50.3 20.46, 100.6 40.92, 185.23 75.36" stroke="#000000" stroke-width="1" fill="none"></path></g><g transform="translate(731.3138006393945 303.48405153480803) rotate(0 92.61646806312297 37.67763931751705)"><path d="M185.23 75.36 L170.25 76.1 L175.03 64.36 L185.23 75.36" stroke="none" stroke-width="0" fill="#000000" fill-rule="evenodd"></path><path d="M185.23 75.36 C181.95 75.52, 178.66 75.68, 170.25 76.1 M185.23 75.36 C181.16 75.56, 177.1 75.76, 170.25 76.1 M170.25 76.1 C171.67 72.62, 173.08 69.14, 175.03 64.36 M170.25 76.1 C171.21 73.74, 172.17 71.38, 175.03 64.36 M175.03 64.36 C177.19 66.69, 179.35 69.02, 185.23 75.36 M175.03 64.36 C178.41 68.01, 181.79 71.65, 185.23 75.36 M185.23 75.36 C185.23 75.36, 185.23 75.36, 185.23 75.36 M185.23 75.36 C185.23 75.36, 185.23 75.36, 185.23 75.36" stroke="#000000" stroke-width="1" fill="none"></path></g></g><mask></mask><g transform="translate(744.2525627047855 307.9915295279111) rotate(21.327220467885137 84.44290126486067 10.555362658107583)"><text x="84.44290126486067" y="16.110725316215166" font-family="Helvetica, Segoe UI Emoji" font-size="18.357152448882754px" fill="#000000" text-anchor="middle" style="white-space: pre;" direction="ltr">integrate datasource</text></g></svg>