<svg version="1.1" xmlns="http://www.w3.org/2000/svg" viewBox="0 0 1682.8571428571431 906.6428571428573" width="1682.8571428571431" height="906.6428571428573">
  <!-- svg-source:excalidraw -->
  
  <defs>
    <style class="style-fonts">
      @font-face {
        font-family: "Virgil";
        src: url("https://excalidraw.com/Virgil.woff2");
      }
      @font-face {
        font-family: "Cascadia";
        src: url("https://excalidraw.com/Cascadia.woff2");
      }
    </style>
  </defs>
  <rect x="0" y="0" width="1682.8571428571431" height="906.6428571428573" fill="#ffffff"></rect><g stroke-linecap="round" transform="translate(470.00000000000136 104.28571428571422) rotate(0 601.4285714285709 351.42857142857144)"><path d="M0 0 C374.24 0, 748.47 0, 1202.86 0 M0 0 C386.84 0, 773.68 0, 1202.86 0 M1202.86 0 C1202.86 187.47, 1202.86 374.94, 1202.86 702.86 M1202.86 0 C1202.86 196.88, 1202.86 393.75, 1202.86 702.86 M1202.86 702.86 C911.18 702.86, 619.51 702.86, 0 702.86 M1202.86 702.86 C726.94 702.86, 251.03 702.86, 0 702.86 M0 702.86 C0 506.43, 0 310.01, 0 0 M0 702.86 C0 470.36, 0 237.86, 0 0" stroke="#000000" stroke-width="2" fill="none"></path></g><g transform="translate(1440.2142857142846 116.07142857142856) rotate(0 75.5 16)"><text x="75.5" y="25" font-family="Helvetica, Segoe UI Emoji" font-size="28px" fill="#000000" text-anchor="middle" style="white-space: pre;" direction="ltr">default VPC</text></g><g stroke-linecap="round" transform="translate(1027.1428571428578 208.571428571429) rotate(0 95.71428571428544 67.14285714285705)"><path d="M0 0 L191.43 0 L191.43 134.29 L0 134.29" stroke="none" stroke-width="0" fill="#82c91e"></path><path d="M0 0 C74.22 0, 148.44 0, 191.43 0 M0 0 C76.35 0, 152.69 0, 191.43 0 M191.43 0 C191.43 43.52, 191.43 87.04, 191.43 134.29 M191.43 0 C191.43 35.31, 191.43 70.63, 191.43 134.29 M191.43 134.29 C128.63 134.29, 65.83 134.29, 0 134.29 M191.43 134.29 C127.53 134.29, 63.63 134.29, 0 134.29 M0 134.29 C0 95.24, 0 56.19, 0 0 M0 134.29 C0 102.89, 0 71.5, 0 0" stroke="#000000" stroke-width="2" fill="none"></path></g><g transform="translate(1034.5 246.07142857142856) rotate(0 85.5 32)"><text x="85.5" y="25" font-family="Helvetica, Segoe UI Emoji" font-size="28px" fill="#000000" text-anchor="middle" style="white-space: pre;" direction="ltr">Observability </text><text x="85.5" y="57" font-family="Helvetica, Segoe UI Emoji" font-size="28px" fill="#000000" text-anchor="middle" style="white-space: pre;" direction="ltr">cluster</text></g><g stroke-linecap="round" transform="translate(1377.1428571428573 327.28937728937717) rotate(359.99999999999886 101.42857142857133 69.56959706959712)"><path d="M0 0 L202.86 0 L202.86 139.14 L0 139.14" stroke="none" stroke-width="0" fill="#4c6ef5"></path><path d="M0 0 C72.98 0, 145.96 0, 202.86 0 M0 0 C41.74 0, 83.48 0, 202.86 0 M202.86 0 C202.86 28.07, 202.86 56.15, 202.86 139.14 M202.86 0 C202.86 28, 202.86 56, 202.86 139.14 M202.86 139.14 C143.05 139.14, 83.24 139.14, 0 139.14 M202.86 139.14 C130.05 139.14, 57.25 139.14, 0 139.14 M0 139.14 C0 109.55, 0 79.95, 0 0 M0 139.14 C0 107.94, 0 76.74, 0 0" stroke="#000000" stroke-width="2" fill="none"></path></g><g transform="translate(1430.5000000000002 366.2261904761903) rotate(359.99999999999886 49.5 32)"><text x="49.5" y="25" font-family="Helvetica, Segoe UI Emoji" font-size="28px" fill="#000000" text-anchor="middle" style="white-space: pre;" direction="ltr">Metrics </text><text x="49.5" y="57" font-family="Helvetica, Segoe UI Emoji" font-size="28px" fill="#000000" text-anchor="middle" style="white-space: pre;" direction="ltr">cluster</text></g><g stroke-linecap="round" transform="translate(1071.4285714285713 592.1428571428569) rotate(0 99.99999999999977 68.5714285714285)"><path d="M0 0 L200 0 L200 137.14 L0 137.14" stroke="none" stroke-width="0" fill="#fd7e14"></path><path d="M0 0 C50.52 0, 101.03 0, 200 0 M0 0 C74.27 0, 148.53 0, 200 0 M200 0 C200 28.91, 200 57.83, 200 137.14 M200 0 C200 39.9, 200 79.81, 200 137.14 M200 137.14 C153.14 137.14, 106.28 137.14, 0 137.14 M200 137.14 C154.49 137.14, 108.99 137.14, 0 137.14 M0 137.14 C0 85.93, 0 34.72, 0 0 M0 137.14 C0 96.8, 0 56.46, 0 0" stroke="#000000" stroke-width="2" fill="none"></path></g><g transform="translate(1102.571428571429 625.3571428571424) rotate(0 76 32)"><text x="76" y="25" font-family="Helvetica, Segoe UI Emoji" font-size="28px" fill="#000000" text-anchor="middle" style="white-space: pre;" direction="ltr">Kubernetes </text><text x="76" y="57" font-family="Helvetica, Segoe UI Emoji" font-size="28px" fill="#000000" text-anchor="middle" style="white-space: pre;" direction="ltr">Cluster</text></g><g stroke-linecap="round" transform="translate(10 10) rotate(0 90.71428571428555 37.857142857142776)"><path d="M0 0 L181.43 0 L181.43 75.71 L0 75.71" stroke="none" stroke-width="0" fill="#82c91e"></path><path d="M0 0 C69.02 0, 138.05 0, 181.43 0 M0 0 C59.92 0, 119.85 0, 181.43 0 M181.43 0 C181.43 16.96, 181.43 33.92, 181.43 75.71 M181.43 0 C181.43 27.58, 181.43 55.15, 181.43 75.71 M181.43 75.71 C141.1 75.71, 100.77 75.71, 0 75.71 M181.43 75.71 C118.97 75.71, 56.52 75.71, 0 75.71 M0 75.71 C0 59.91, 0 44.11, 0 0 M0 75.71 C0 50.36, 0 25.01, 0 0" stroke="#000000" stroke-width="2" fill="none"></path></g><g transform="translate(37.28571428571422 33.71428571428601) rotate(0 57 16)"><text x="57" y="25" font-family="Helvetica, Segoe UI Emoji" font-size="28px" fill="#000000" text-anchor="middle" style="white-space: pre;" direction="ltr">Engineer</text></g><g stroke-linecap="round" transform="translate(545.714285714284 272.1428571428567) rotate(0 81.42857142857133 76.42857142857139)"><path d="M0 0 L162.86 0 L162.86 152.86 L0 152.86" stroke="none" stroke-width="0" fill="#fab005"></path><path d="M0 0 C48.16 0, 96.33 0, 162.86 0 M0 0 C61.77 0, 123.54 0, 162.86 0 M162.86 0 C162.86 39.97, 162.86 79.95, 162.86 152.86 M162.86 0 C162.86 43.14, 162.86 86.28, 162.86 152.86 M162.86 152.86 C112.63 152.86, 62.4 152.86, 0 152.86 M162.86 152.86 C124.4 152.86, 85.94 152.86, 0 152.86 M0 152.86 C0 99.03, 0 45.2, 0 0 M0 152.86 C0 105.44, 0 58.03, 0 0" stroke="#000000" stroke-width="2" fill="none"></path></g><g transform="translate(588.2142857142835 318.21428571428504) rotate(0 47.5 32)"><text x="47.5" y="25" font-family="Helvetica, Segoe UI Emoji" font-size="28px" fill="#000000" text-anchor="middle" style="white-space: pre;" direction="ltr">VPN </text><text x="47.5" y="57" font-family="Helvetica, Segoe UI Emoji" font-size="28px" fill="#000000" text-anchor="middle" style="white-space: pre;" direction="ltr">Bastion</text></g><g mask="url(#mask-iqbBz3G_HnwUmvs70MQXo)" stroke-linecap="round"><g transform="translate(712.4393241167418 322.02726584985896) rotate(0 157.41109358913434 -20.35337566524271)"><path d="M0 0 C105.45 -13.63, 210.9 -27.27, 314.82 -40.71 M0 0 C95.42 -12.34, 190.84 -24.68, 314.82 -40.71" stroke="#000000" stroke-width="2" fill="none"></path></g><g transform="translate(712.4393241167418 322.02726584985896) rotate(0 157.41109358913434 -20.35337566524271)"><path d="M314.82 -40.71 L302.15 -32.68 L300.53 -45.25 L314.82 -40.71" stroke="none" stroke-width="0" fill="#000000" fill-rule="evenodd"></path><path d="M314.82 -40.71 C310.58 -38.02, 306.34 -35.33, 302.15 -32.68 M314.82 -40.71 C310.98 -38.27, 307.14 -35.84, 302.15 -32.68 M302.15 -32.68 C301.77 -35.62, 301.39 -38.56, 300.53 -45.25 M302.15 -32.68 C301.55 -37.32, 300.95 -41.96, 300.53 -45.25 M300.53 -45.25 C305.42 -43.69, 310.32 -42.14, 314.82 -40.71 M300.53 -45.25 C304.63 -43.95, 308.74 -42.64, 314.82 -40.71 M314.82 -40.71 C314.82 -40.71, 314.82 -40.71, 314.82 -40.71 M314.82 -40.71 C314.82 -40.71, 314.82 -40.71, 314.82 -40.71" stroke="#000000" stroke-width="2" fill="none"></path></g></g><mask id="mask-iqbBz3G_HnwUmvs70MQXo"><rect x="0" y="0" fill="#fff" width="1127.2615112950105" height="462.7340171803444"></rect><rect x="790.8504177058762" y="285.67389018461625" fill="#000" width="158" height="32" opacity="1"></rect></mask><g transform="translate(790.8504177058762 285.67389018461625) rotate(0 78.99999999999989 16)"><text x="79" y="25" font-family="Helvetica, Segoe UI Emoji" font-size="28px" fill="#000000" text-anchor="middle" style="white-space: pre;" direction="ltr">https access</text></g><g mask="url(#mask-IWkY5TcST4Rg4aJp6CIYY)" stroke-linecap="round"><g transform="translate(143.9604954489123 88.52747252747213) rotate(0 199.18240463024176 129.5861761600766)"><path d="M0 0 C115.18 74.93, 230.36 149.87, 398.36 259.17 M0 0 C124.79 81.19, 249.59 162.38, 398.36 259.17" stroke="#000000" stroke-width="2" fill="none"></path></g><g transform="translate(143.9604954489123 88.52747252747213) rotate(0 199.18240463024176 129.5861761600766)"><path d="M398.36 259.17 L383.51 257.07 L390.43 246.45 L398.36 259.17" stroke="none" stroke-width="0" fill="#000000" fill-rule="evenodd"></path><path d="M398.36 259.17 C394.07 258.57, 389.78 257.96, 383.51 257.07 M398.36 259.17 C393.71 258.51, 389.06 257.86, 383.51 257.07 M383.51 257.07 C386.1 253.1, 388.68 249.12, 390.43 246.45 M383.51 257.07 C385.84 253.49, 388.17 249.92, 390.43 246.45 M390.43 246.45 C392.62 249.96, 394.81 253.47, 398.36 259.17 M390.43 246.45 C393.28 251.02, 396.13 255.59, 398.36 259.17 M398.36 259.17 C398.36 259.17, 398.36 259.17, 398.36 259.17 M398.36 259.17 C398.36 259.17, 398.36 259.17, 398.36 259.17" stroke="#000000" stroke-width="2" fill="none"></path></g></g><mask id="mask-IWkY5TcST4Rg4aJp6CIYY"><rect x="0" y="0" fill="#fff" width="642.3253047093958" height="447.69982484762534"></rect><rect x="298.64290007915406" y="202.11364868754873" fill="#000" width="89" height="32" opacity="1"></rect></mask><g transform="translate(298.64290007915406 202.11364868754873) rotate(0 44.5 16)"><text x="44.5" y="25" font-family="Helvetica, Segoe UI Emoji" font-size="28px" fill="#000000" text-anchor="middle" style="white-space: pre;" direction="ltr">access</text></g><g mask="url(#mask-qnnl-U7qsLp1CQO_dzUU1)" stroke-linecap="round"><g transform="translate(616.2585651743893 428.8571428571425) rotate(0 228.12864875304592 117.50873133959027)"><path d="M0 0 C112.42 57.91, 224.84 115.82, 456.26 235.02 M0 0 C111.66 57.52, 223.32 115.03, 456.26 235.02" stroke="#000000" stroke-width="2" fill="none"></path></g><g transform="translate(616.2585651743893 428.8571428571425) rotate(0 228.12864875304592 117.50873133959027)"><path d="M456.26 235.02 L441.27 234.43 L447.07 223.16 L456.26 235.02" stroke="none" stroke-width="0" fill="#000000" fill-rule="evenodd"></path><path d="M456.26 235.02 C452.56 234.87, 448.87 234.73, 441.27 234.43 M456.26 235.02 C452.59 234.87, 448.92 234.73, 441.27 234.43 M441.27 234.43 C443.08 230.92, 444.89 227.41, 447.07 223.16 M441.27 234.43 C443.49 230.11, 445.72 225.78, 447.07 223.16 M447.07 223.16 C449.53 226.33, 451.98 229.5, 456.26 235.02 M447.07 223.16 C449.56 226.37, 452.05 229.59, 456.26 235.02 M456.26 235.02 C456.26 235.02, 456.26 235.02, 456.26 235.02 M456.26 235.02 C456.26 235.02, 456.26 235.02, 456.26 235.02" stroke="#000000" stroke-width="2" fill="none"></path></g></g><mask id="mask-qnnl-U7qsLp1CQO_dzUU1"><rect x="0" y="0" fill="#fff" width="1172.5158626804812" height="763.8746055363231"></rect><rect x="773.8872139274354" y="530.3658741967328" fill="#000" width="141" height="32" opacity="1"></rect></mask><g transform="translate(773.8872139274354 530.3658741967328) rotate(0 70.49999999999989 16)"><text x="70.5" y="25" font-family="Helvetica, Segoe UI Emoji" font-size="28px" fill="#000000" text-anchor="middle" style="white-space: pre;" direction="ltr">ssh access</text></g><g mask="url(#mask-CcDrT-spJFNty9TBCg8In)" stroke-linecap="round"><g transform="translate(707.1342857142831 414.2705603805449) rotate(0 333.7415104366114 16.914490519440164)"><path d="M0 0 C189.38 9.6, 378.77 19.2, 667.48 33.83 M0 0 C171.96 8.71, 343.91 17.43, 667.48 33.83" stroke="#000000" stroke-width="2" fill="none"></path></g><g transform="translate(707.1342857142831 414.2705603805449) rotate(0 333.7415104366114 16.914490519440164)"><path d="M667.48 33.83 L653.58 39.47 L654.23 26.81 L667.48 33.83" stroke="none" stroke-width="0" fill="#000000" fill-rule="evenodd"></path><path d="M667.48 33.83 C663.54 35.43, 659.6 37.03, 653.58 39.47 M667.48 33.83 C663.9 35.28, 660.32 36.74, 653.58 39.47 M653.58 39.47 C653.78 35.61, 653.98 31.76, 654.23 26.81 M653.58 39.47 C653.77 35.86, 653.95 32.25, 654.23 26.81 M654.23 26.81 C658.86 29.26, 663.49 31.71, 667.48 33.83 M654.23 26.81 C659.18 29.43, 664.13 32.05, 667.48 33.83 M667.48 33.83 C667.48 33.83, 667.48 33.83, 667.48 33.83 M667.48 33.83 C667.48 33.83, 667.48 33.83, 667.48 33.83" stroke="#000000" stroke-width="2" fill="none"></path></g></g><mask id="mask-CcDrT-spJFNty9TBCg8In"><rect x="0" y="0" fill="#fff" width="1474.617306587506" height="548.0995414194252"></rect><rect x="970.3757961508945" y="415.1850508999851" fill="#000" width="141" height="32" opacity="1"></rect></mask><g transform="translate(970.3757961508945 415.1850508999851) rotate(0 70.5 16)"><text x="70.5" y="25" font-family="Helvetica, Segoe UI Emoji" font-size="28px" fill="#000000" text-anchor="middle" style="white-space: pre;" direction="ltr">ssh access</text></g><g stroke-linecap="round" transform="translate(965.7142857142851 171.42857142857258) rotate(0 321.4285714285712 295.7142857142856)"><path d="M0 0 C190.88 0, 381.76 0, 642.86 0 M0 0 C180.03 0, 360.06 0, 642.86 0 M642.86 0 C642.86 215, 642.86 430, 642.86 591.43 M642.86 0 C642.86 152.98, 642.86 305.96, 642.86 591.43 M642.86 591.43 C449.85 591.43, 256.84 591.43, 0 591.43 M642.86 591.43 C486.24 591.43, 329.62 591.43, 0 591.43 M0 591.43 C0 386.24, 0 181.04, 0 0 M0 591.43 C0 383.01, 0 174.6, 0 0" stroke="#000000" stroke-width="2" fill="none"></path></g><g transform="translate(1396.8571428571415 190.35714285714346) rotate(0 96 16)"><text x="96" y="25" font-family="Helvetica, Segoe UI Emoji" font-size="28px" fill="#000000" text-anchor="middle" style="white-space: pre;" direction="ltr">private network</text></g><g stroke-linecap="round" transform="translate(517.142857142856 170.00000000000023) rotate(0 202.14285714285734 162.85714285714278)"><path d="M0 0 C88.9 0, 177.81 0, 404.29 0 M0 0 C105.79 0, 211.59 0, 404.29 0 M404.29 0 C404.29 114.8, 404.29 229.6, 404.29 325.71 M404.29 0 C404.29 117.17, 404.29 234.34, 404.29 325.71 M404.29 325.71 C299.74 325.71, 195.19 325.71, 0 325.71 M404.29 325.71 C317.58 325.71, 230.88 325.71, 0 325.71 M0 325.71 C0 202.45, 0 79.19, 0 0 M0 325.71 C0 227.2, 0 128.68, 0 0" stroke="#000000" stroke-width="2" fill="none"></path></g><g transform="translate(715.2142857142844 188.928571428572) rotate(0 90.5 16)"><text x="90.5" y="25" font-family="Helvetica, Segoe UI Emoji" font-size="28px" fill="#000000" text-anchor="middle" style="white-space: pre;" direction="ltr">public network</text></g><g stroke-linecap="round"><g transform="translate(1367.5714285714282 394.19671736425926) rotate(0 -329.0000000000008 -12.999202317011054)"><path d="M0 0 C-231.43 -9.14, -462.86 -18.29, -658 -26" stroke="#000000" stroke-width="2.5" fill="none" stroke-dasharray="1.5 8"></path></g><g transform="translate(1367.5714285714282 394.19671736425926) rotate(0 -329.0000000000008 -12.999202317011054)"><path d="M-658 -26 L-644.17 -31.8 L-644.67 -19.13 L-658 -26" stroke="none" stroke-width="0" fill="#000000" fill-rule="evenodd"></path><path d="M-658 -26 C-653.13 -28.04, -648.27 -30.08, -644.17 -31.8 M-644.17 -31.8 C-644.29 -28.65, -644.41 -25.51, -644.67 -19.13 M-644.67 -19.13 C-647.5 -20.59, -650.33 -22.04, -658 -26 M-658 -26 C-658 -26, -658 -26, -658 -26" stroke="#000000" stroke-width="2.5" fill="none"></path></g></g><mask></mask><g stroke-linecap="round"><g transform="translate(1441.4285714285702 841.4285714285716) rotate(0 115.71428571428555 1.4285714285714448)"><path d="M0 0 C65.55 0.81, 131.11 1.62, 231.43 2.86" stroke="#000000" stroke-width="2.5" fill="none" stroke-dasharray="1.5 8"></path></g><g transform="translate(1441.4285714285702 841.4285714285716) rotate(0 115.71428571428555 1.4285714285714448)"><path d="M231.43 2.86 L217.76 9.03 L217.91 -3.65 L231.43 2.86" stroke="none" stroke-width="0" fill="#000000" fill-rule="evenodd"></path><path d="M231.43 2.86 C227.56 4.61, 223.68 6.35, 217.76 9.03 M217.76 9.03 C217.79 6.46, 217.82 3.9, 217.91 -3.65 M217.91 -3.65 C222.38 -1.5, 226.84 0.65, 231.43 2.86 M231.43 2.86 C231.43 2.86, 231.43 2.86, 231.43 2.86" stroke="#000000" stroke-width="2.5" fill="none"></path></g></g><mask></mask><g stroke-linecap="round"><g transform="translate(1424.8622728902694 466.36671590958065) rotate(0 -113.6483591523654 59.67378490235206)"><path d="M0 0 C-46.1 24.21, -92.2 48.41, -227.3 119.35" stroke="#000000" stroke-width="2.5" fill="none" stroke-dasharray="1.5 8"></path></g><g transform="translate(1424.8622728902694 466.36671590958065) rotate(0 -113.6483591523654 59.67378490235206)"><path d="M-227.3 119.35 L-218.21 107.42 L-212.31 118.64 L-227.3 119.35" stroke="none" stroke-width="0" fill="#000000" fill-rule="evenodd"></path><path d="M-227.3 119.35 C-225.45 116.93, -223.61 114.51, -218.21 107.42 M-218.21 107.42 C-215.92 111.77, -213.63 116.12, -212.31 118.64 M-212.31 118.64 C-217.47 118.88, -222.62 119.13, -227.3 119.35 M-227.3 119.35 C-227.3 119.35, -227.3 119.35, -227.3 119.35" stroke="#000000" stroke-width="2.5" fill="none"></path></g></g><mask></mask><g transform="translate(1447.7142857142844 864.6428571428573) rotate(0 88 16)"><text x="88" y="25" font-family="Helvetica, Segoe UI Emoji" font-size="28px" fill="#000000" text-anchor="middle" style="white-space: pre;" direction="ltr">scrap metrics </text></g><g stroke-linecap="round"><g transform="translate(1375.5677655677662 351.78046649486873) rotate(0 -78.49816849816898 -27.180350636714564)"><path d="M0 0 C-56.67 -19.62, -113.34 -39.25, -157 -54.36" stroke="#000000" stroke-width="2.5" fill="none" stroke-dasharray="1.5 8"></path></g><g transform="translate(1375.5677655677662 351.78046649486873) rotate(0 -78.49816849816898 -27.180350636714564)"><path d="M-157 -54.36 L-142.08 -55.9 L-146.22 -43.92 L-157 -54.36" stroke="none" stroke-width="0" fill="#000000" fill-rule="evenodd"></path><path d="M-157 -54.36 C-151.61 -54.92, -146.22 -55.47, -142.08 -55.9 M-142.08 -55.9 C-143.02 -53.16, -143.97 -50.42, -146.22 -43.92 M-146.22 -43.92 C-148.58 -46.21, -150.94 -48.49, -157 -54.36 M-157 -54.36 C-157 -54.36, -157 -54.36, -157 -54.36" stroke="#000000" stroke-width="2.5" fill="none"></path></g></g><mask></mask></svg>